# xmcd CD database file
#
# Track frame offsets:
#	150
#	25086
#	49070
#	70152
#	88987
#	108395
#	130090
#	141207
#	163952
#	184929
#	205525
#	224923
#	243245
#	263097
#	277314
#
# Disc length: 3900 seconds
#
# Revision: 0
# Processed by: cddbd v1.4PL0 Copyright (c) Steve Scherf et al.
# Submitted via: CDex 1.50Beta3
#
DISCID=eb0f3a0f
DTITLE=Stewart Dudley - Blue Sails
DYEAR=1998
DGENRE=New Age
TTITLE0=Blue Sails
TTITLE1=Cloudless Sky
TTITLE2=Princess
TTITLE3=Pavane For A Winter Bird
TTITLE4=Chloe
TTITLE5=I'll Always Be With You
TTITLE6=Caress
TTITLE7=Distant Shores
TTITLE8=All I Ever Wanted
TTITLE9=Love's Shadow
TTITLE10=In The Midst Of Emotion
TTITLE11=Free Spirit
TTITLE12=Rendezvous
TTITLE13=Appassionato
TTITLE14=Angelic Blue
EXTD=YEAR: 1998
EXTT0=
EXTT1=
EXTT2=
EXTT3=
EXTT4=
EXTT5=
EXTT6=
EXTT7=
EXTT8=
EXTT9=
EXTT10=
EXTT11=
EXTT12=
EXTT13=
EXTT14=
PLAYORDER=
